<svg width="90" height="90" viewBox="0 0 90 90" fill="none" xmlns="http://www.w3.org/2000/svg">
<path fill-rule="evenodd" clip-rule="evenodd" d="M79.1 69.1V49.1H69.1V69.1H59.1V79.1H69.1V89.1H59.1H49.1V69.1H39.1V89.1H29.1H19.1V79.1H29.1V69.1H19.1V49.1H9.1V59.1V69.1H0V59.1V49.1V39.1H9.1V29.1H19.1V19.1H29.1V9.1H39.1V19.1H49.1V9.1H59.1V19.1H69.1V29.1H79.1V39.1H89.1V49.1V69.1H79.1ZM39.1 29.1H29.1V39.1H39.1V29.1ZM59.1 29.1H49.1V39.1H59.1V29.1ZM19.1 0H29.1V9.1H19.1V0ZM69.1 0V9.1H59.1V0H69.1Z" fill="#FEDA32"/>
</svg>
